<?xml version="1.0" standalone="no"?>
<!DOCTYPE svg PUBLIC "-//W3C//DTD SVG 20010904//EN"
 "http://www.w3.org/TR/2001/REC-SVG-20010904/DTD/svg10.dtd">
<svg version="1.0" xmlns="http://www.w3.org/2000/svg"
 width="928.000000pt" height="928.000000pt" viewBox="0 0 928.000000 928.000000"
 preserveAspectRatio="xMidYMid meet">
<metadata>
Created by potrace 1.14, written by Peter Selinger 2001-2017
</metadata>
<g transform="translate(0.000000,928.000000) scale(0.100000,-0.100000)"
fill="#000000" stroke="none">
<path d="M7838 9205 c-2 -2 -23 -6 -48 -10 -65 -10 -144 -39 -182 -69 -40 -30
-153 -149 -188 -195 -14 -19 -30 -39 -35 -45 -19 -20 -103 -164 -129 -220 -35
-76 -85 -232 -97 -302 -25 -149 2 -280 74 -354 34 -35 98 -73 125 -73 6 0 12
-3 12 -6 0 -3 10 -7 23 -8 22 -2 56 -7 113 -18 18 -3 37 -12 44 -20 10 -12 7
-20 -18 -44 -17 -15 -55 -40 -84 -55 -174 -87 -321 -207 -365 -296 -25 -51
-22 -149 6 -235 13 -38 28 -76 34 -83 6 -7 11 -34 11 -60 1 -41 -6 -58 -57
-134 -31 -47 -77 -108 -101 -135 l-44 -48 -21 22 c-12 12 -21 25 -21 29 0 3
-13 23 -30 44 -16 21 -30 42 -30 48 0 6 -4 12 -8 14 -8 3 -89 125 -122 183
-18 32 -16 55 4 55 25 0 113 89 121 122 4 18 10 42 14 53 3 11 5 85 5 165 0
173 -8 206 -97 381 -104 207 -166 283 -301 373 -80 53 -235 118 -313 132 -13
2 -35 7 -50 10 -37 8 -169 8 -213 0 -19 -4 -48 -9 -64 -11 -39 -6 -196 -85
-203 -101 -3 -8 -11 -14 -19 -14 -8 0 -14 -3 -14 -7 0 -5 -16 -25 -36 -45 -36
-38 -83 -132 -89 -178 -2 -14 -4 -25 -5 -25 -3 0 -10 -40 -13 -72 -2 -18 -5
-35 -8 -37 -3 -3 -3 -54 -1 -113 6 -135 6 -212 1 -238 -3 -11 -25 -58 -50
-105 -26 -47 -49 -95 -53 -107 -4 -13 -12 -23 -17 -23 -5 0 -8 -3 -7 -7 2 -9
-21 -82 -31 -98 -3 -5 -6 -12 -6 -15 -3 -25 -18 -87 -23 -95 -3 -5 -7 -23 -9
-40 -1 -16 -6 -59 -11 -95 -12 -98 -5 -308 13 -370 6 -23 16 -72 19 -100 2
-14 7 -36 11 -50 5 -14 10 -34 11 -45 2 -11 6 -33 9 -50 5 -28 1 -33 -52 -67
-32 -21 -71 -49 -87 -63 -16 -14 -33 -25 -38 -25 -8 0 -48 -33 -90 -72 -10
-10 -20 -18 -23 -18 -10 0 -151 -148 -196 -206 -118 -152 -181 -282 -227 -464
-13 -51 -11 -222 3 -288 27 -131 91 -199 230 -247 28 -9 64 -19 80 -22 17 -3
38 -9 48 -14 9 -5 17 -7 17 -5 0 3 18 -1 40 -9 22 -8 40 -12 40 -10 0 2 18 -2
40 -10 22 -8 40 -12 40 -9 0 2 14 -2 30 -11 17 -9 30 -21 30 -27 0 -24 -90
-194 -120 -228 -64 -72 -160 -168 -250 -250 -51 -47 -103 -94 -115 -105 -12
-11 -55 -49 -96 -85 -41 -35 -81 -71 -90 -80 -28 -27 -173 -153 -243 -211 -16
-13 -34 -29 -40 -34 -9 -8 -134 -111 -206 -169 -9 -7 -24 -15 -33 -19 -9 -3
-17 -11 -17 -16 0 -6 -6 -8 -14 -5 -10 4 -13 25 -10 92 2 48 6 107 10 132 5
43 8 64 17 155 5 43 20 155 23 168 1 4 2 13 3 21 2 28 30 45 65 39 18 -3 66 0
105 7 39 6 73 11 76 11 18 -4 112 92 128 129 14 34 16 135 3 187 -8 38 -66
153 -77 153 -5 0 -9 6 -9 14 0 16 -99 109 -184 172 -34 25 -69 52 -79 60 -9 8
-19 14 -21 14 -2 0 -47 27 -99 60 -53 33 -100 60 -106 60 -5 0 -11 4 -13 8 -4
10 -100 57 -110 54 -5 -1 -8 3 -8 8 0 5 -3 9 -7 8 -5 -1 -21 4 -38 11 -153 61
-365 129 -430 137 -5 0 -21 4 -35 7 -14 4 -36 9 -50 11 -14 3 -34 7 -45 9 -24
5 -112 19 -140 23 -11 1 -49 6 -85 10 -76 10 -304 12 -340 3 -110 -29 -175
-51 -283 -97 -109 -46 -116 -163 -17 -275 32 -37 42 -63 27 -75 -7 -6 -41 -17
-77 -26 -65 -16 -178 -68 -221 -103 -99 -78 -191 -195 -247 -313 -45 -97 -102
-294 -127 -445 -3 -16 -7 -43 -10 -60 -3 -16 -8 -59 -11 -95 -11 -158 -11
-158 -52 -263 -16 -42 -27 -77 -23 -77 3 0 1 -4 -4 -8 -11 -7 -87 -172 -91
-196 -1 -6 -8 -24 -14 -41 -33 -80 -30 -282 5 -425 3 -14 9 -38 11 -54 13 -70
100 -175 200 -241 52 -35 169 -92 203 -101 9 -2 34 -8 56 -13 22 -6 113 -8
203 -6 l163 4 -3 -60 c-2 -32 -5 -59 -8 -59 -3 0 -6 -8 -7 -18 -1 -9 -13 -64
-28 -122 -29 -115 -29 -115 -176 -242 -30 -25 -64 -54 -75 -65 -12 -10 -43
-36 -69 -58 -26 -22 -53 -45 -59 -51 -36 -33 -128 -115 -169 -149 -27 -22 -63
-53 -81 -70 -18 -16 -61 -55 -96 -85 -34 -30 -84 -74 -110 -98 -26 -23 -64
-55 -84 -71 -19 -16 -33 -31 -29 -35 3 -3 1 -6 -5 -6 -6 0 -37 -24 -68 -53
-31 -28 -71 -65 -88 -80 -75 -69 -269 -263 -341 -343 -44 -48 -96 -104 -115
-125 -19 -21 -53 -60 -75 -86 -22 -26 -49 -57 -60 -69 -11 -11 -49 -56 -84
-100 -35 -43 -70 -83 -76 -89 -7 -5 -33 -41 -58 -78 l-47 -69 27 -38 c16 -22
40 -44 54 -49 23 -8 31 -5 51 17 32 36 78 99 78 108 0 10 94 137 178 239 111
136 218 251 423 455 185 185 232 230 389 370 46 41 96 87 112 102 16 16 31 28
34 28 2 0 17 12 32 28 15 15 88 78 162 140 74 63 146 123 160 135 14 12 68 57
120 100 52 44 115 96 140 117 137 116 172 140 199 135 14 -3 37 -8 51 -10 55
-8 256 -58 286 -71 41 -17 37 -30 -23 -80 -58 -49 -102 -137 -97 -194 7 -70
102 -213 193 -289 112 -92 432 -282 551 -326 25 -9 54 -21 65 -26 36 -15 165
-46 221 -52 17 -2 35 -6 41 -10 7 -4 14 -3 18 3 4 6 12 7 18 3 40 -25 419 -32
532 -10 11 3 43 8 70 12 74 10 222 60 282 95 70 40 181 145 200 189 26 62 27
140 3 263 -34 171 -78 247 -236 405 -99 99 -254 208 -404 284 -47 24 -88 43
-92 44 -4 0 -13 6 -19 13 -7 6 -21 12 -31 12 -10 0 -37 9 -61 19 -68 31 -130
53 -167 62 -19 4 -78 19 -130 32 -52 13 -120 27 -150 31 -30 4 -68 9 -85 11
-60 7 -310 4 -310 -5 0 -2 -15 -5 -60 -13 -96 -18 -153 -52 -182 -108 -23 -44
-27 -58 -39 -134 -3 -22 -7 -44 -8 -50 -1 -5 -7 -24 -15 -42 -15 -37 -8 -37
-171 4 -52 13 -106 26 -120 29 -13 3 -26 7 -28 9 -9 8 22 47 65 82 27 21 51
43 56 50 4 6 37 35 75 64 37 30 69 56 72 59 3 3 23 19 45 36 22 16 46 34 55
41 135 106 297 234 305 241 6 4 53 41 105 82 108 85 128 101 144 115 6 6 31
26 56 45 25 19 47 38 48 42 2 5 11 8 19 8 9 0 13 3 10 7 -4 3 16 22 43 41 28
19 50 39 50 43 0 5 5 9 11 9 6 0 16 6 23 13 7 6 32 28 56 47 24 19 60 49 80
65 21 17 48 37 60 45 12 8 84 64 158 124 221 176 268 198 427 198 143 -1 265
-19 265 -41 0 -4 -20 -27 -45 -50 -25 -24 -53 -58 -62 -75 -9 -17 -19 -33 -22
-36 -3 -3 -13 -21 -22 -40 -9 -19 -21 -46 -28 -60 -33 -73 -29 -144 12 -205
18 -26 101 -111 139 -141 85 -67 281 -161 398 -190 132 -32 128 -32 220 -50
92 -18 145 -24 230 -26 68 -1 203 9 232 18 19 6 49 12 93 19 17 3 44 8 60 12
17 4 32 7 35 8 32 6 118 28 130 32 8 3 23 8 33 10 28 5 119 46 142 63 43 32
175 173 175 186 0 8 4 14 8 14 7 0 30 46 38 80 8 29 3 145 -6 145 -1 0 -3 9
-5 20 -4 32 -35 115 -63 170 -39 78 -79 134 -151 209 l-66 69 30 13 c17 6 44
14 60 17 17 3 70 17 119 31 49 14 92 25 95 24 3 0 8 1 11 2 5 1 11 3 55 14
160 38 386 135 501 215 163 112 264 264 241 361 -15 68 -54 144 -121 240 -59
86 -304 320 -334 320 -6 0 -12 4 -14 9 -4 12 -100 72 -175 110 -67 33 -235 98
-268 103 -11 2 -25 6 -30 10 -6 3 -27 9 -48 13 -20 4 -40 11 -43 16 -3 5 -10
7 -15 3 -5 -3 -16 0 -24 6 -8 7 -15 10 -15 7 0 -3 -32 3 -72 13 -39 11 -75 17
-80 14 -4 -3 -8 0 -8 5 0 6 -9 11 -20 11 -11 0 -20 2 -20 4 0 3 25 42 57 88
159 234 292 365 400 393 53 14 60 12 67 -26 7 -40 23 -60 83 -104 63 -46 133
-111 133 -125 0 -28 138 -106 230 -130 25 -6 52 -14 60 -17 8 -3 22 -7 30 -8
79 -12 107 -17 120 -20 39 -11 93 -17 185 -20 55 -3 102 -5 105 -6 23 -6 227
6 280 16 14 3 41 8 60 11 105 18 279 95 334 147 33 32 34 35 25 74 -10 38 -32
68 -78 105 -11 10 -21 14 -21 10 0 -4 -4 -2 -8 4 -12 18 -151 74 -247 100 -10
3 -14 4 -100 24 -27 7 -61 13 -75 15 -14 1 -34 5 -45 8 -19 6 -68 14 -145 23
-19 2 -48 6 -65 9 -16 2 -61 7 -100 10 -38 4 -86 8 -105 10 -185 19 -532 26
-647 14 -29 -3 -53 -2 -53 3 0 11 57 96 78 117 8 8 32 38 54 68 22 29 43 53
47 53 4 0 14 12 24 28 9 15 31 43 49 63 18 20 43 49 55 65 25 33 61 77 83 104
8 10 22 28 30 41 8 12 23 31 33 41 9 10 17 20 17 23 0 10 83 115 91 115 5 0 9
5 9 12 0 6 37 48 83 92 80 78 169 138 183 123 4 -4 2 -31 -5 -60 -18 -84 -19
-118 -4 -170 20 -69 90 -136 174 -167 86 -32 221 -34 359 -5 14 3 35 7 47 9
56 12 249 81 263 96 3 3 23 14 45 24 45 22 185 124 185 135 0 4 11 14 25 21
14 7 23 15 22 17 -2 2 24 31 57 66 150 154 216 267 218 373 1 57 -5 90 -31
174 -11 34 -17 67 -15 74 3 6 50 42 104 80 55 38 128 97 162 130 74 71 148
159 148 175 0 6 4 11 10 11 5 0 12 11 16 25 3 14 9 25 13 25 4 0 13 17 20 38
8 20 18 48 24 62 18 44 19 53 22 145 4 148 -38 237 -172 372 -48 47 -71 63
-100 68 -21 3 -58 10 -83 15 -124 26 -180 32 -318 34 -123 2 -124 2 -138 28
-8 15 -16 37 -18 50 -3 13 -5 23 -6 23 -2 0 -7 22 -15 60 -3 17 -11 46 -17 65
-7 19 -12 40 -13 45 -4 36 -58 139 -93 177 -47 51 -166 100 -249 103 -34 2
-63 1 -65 0z m-1140 -2231 c18 -23 32 -46 32 -52 0 -6 3 -12 8 -14 10 -4 37
-50 77 -131 34 -70 35 -105 4 -143 -6 -8 -8 -14 -5 -14 6 0 -86 -137 -121
-180 -7 -8 -44 -55 -83 -105 -105 -132 -133 -166 -155 -191 -11 -12 -33 -39
-50 -60 -37 -48 -94 -104 -105 -104 -7 0 -12 19 -26 89 -4 21 19 51 39 51 42
0 90 42 107 93 22 71 16 263 -15 447 -3 19 -8 49 -10 65 -2 17 -4 30 -5 30 -1
0 -3 11 -5 25 -3 30 8 45 57 76 75 48 140 135 152 204 3 14 5 26 5 28 1 3 63
-67 99 -114z m-509 -985 c29 -143 10 -190 -133 -330 -40 -39 -65 -49 -67 -26
0 6 -3 21 -5 32 -11 50 -19 182 -15 247 1 11 23 29 59 47 31 16 75 45 97 64
22 19 43 33 46 31 4 -2 12 -31 18 -65z m-768 -1211 c0 -2 3 -25 6 -51 4 -42 2
-51 -20 -71 -19 -18 -35 -22 -71 -21 -56 3 -61 7 -47 34 25 45 126 129 132
109z m-69 -268 c0 -14 -16 -66 -21 -70 -11 -8 -79 -153 -83 -175 -4 -28 -16
-34 -57 -28 -52 7 -133 11 -234 13 -48 1 -89 6 -92 10 -2 4 19 28 48 53 29 25
79 71 112 101 55 52 108 85 145 93 8 2 41 5 73 7 32 2 61 6 64 9 5 6 44 -6 45
-13z m-2286 -199 c5 -5 48 -30 96 -55 49 -24 94 -48 100 -53 7 -4 22 -9 32
-10 11 -2 24 -7 30 -12 30 -22 164 -53 243 -55 93 -4 128 3 207 39 74 32 85
35 92 24 6 -10 6 -144 -1 -209 -2 -19 -6 -62 -9 -95 -3 -33 -8 -76 -11 -95 -3
-19 -8 -51 -10 -70 -8 -56 -34 -166 -47 -197 -6 -15 -11 -31 -10 -35 1 -5 -3
-8 -8 -8 -6 0 -10 -6 -10 -14 0 -8 -23 -34 -51 -58 -29 -23 -57 -48 -63 -53
-6 -6 -47 -39 -91 -75 -44 -35 -82 -67 -85 -70 -9 -11 -523 -415 -605 -475
-44 -33 -83 -64 -86 -69 -4 -5 -12 -5 -19 -1 -16 10 -7 184 11 213 7 12 37 28
68 37 169 50 225 94 292 229 85 173 94 343 34 631 -9 44 -18 87 -20 95 -4 18
-54 237 -61 265 -3 11 -7 31 -10 45 -2 14 -7 32 -10 40 -11 30 -21 100 -15
100 4 0 11 -4 17 -9z m1530 -372 c10 -48 25 -135 30 -176 5 -39 4 -42 -18 -38
-23 4 -79 10 -198 20 -36 4 -74 9 -84 12 -20 5 -20 6 0 20 32 23 87 67 100 81
41 40 153 116 161 108 2 -2 6 -14 9 -27z m-1943 -1268 c-8 -61 -9 -65 -26
-102 -20 -41 -70 -90 -172 -170 -98 -76 -148 -109 -168 -109 -35 0 -39 132 -5
166 8 8 33 16 56 19 40 4 71 16 100 39 30 24 105 101 140 145 65 81 84 84 75
12z"/>
</g>
</svg>
